{"title":"The Pacific (2010)  1080p  - (Episode 5)","uid":8809698,"size":2357127705,"categoryP":"video","categoryS":"hd___tv_shows","magnet":"?xt=urn:btih:ee14739c0449a0fc9968069aa8b030fc0b6ec5fa&amp;dn=The+Pacific+%282010%29++1080p++-+%28Episode+5%29&amp;tr=udp%3A%2F%2Ftracker.openbittorrent.com%3A80&amp;tr=udp%3A%2F%2Fopen.demonii.com%3A1337&amp;tr=udp%3A%2F%2Ftracker.coppersurfer.tk%3A6969&amp;tr=udp%3A%2F%2Fexodus.desync.com%3A6969","seeders":0,"leechers":1,"uploader":"molpol","files":-1,"time":1376427782,"description":"\n\nThe Pacific (2010) \n\n\nEpisode 5: Peleliu Airfield\n\nWater is in short supply and the stifling heat takes control on Peleliu as Leckie is wounded and evacuated.\n\n\nMedia Info:\n\nFormat                                   : Matroska\nFormat version                           : Version 4 / Version 2\nFile size                                : 2.19 GiB\nDuration                                 : 49mn 8s\nOverall bit rate                         : 6 393 Kbps\nMovie name                               : PACIFIC_DISC3.Title800.BlurayRip\nEncoded date                             : UTC 2013-07-25 16:08:41\nWriting application                      : mkvmerge v6.1.0 ('Old Devil') built on Mar  2 2013 22:22:31\nWriting library                          : libebml v1.3.0 + libmatroska v1.4.0\n\nVideo\nID                                       : 1\nFormat                                   : AVC\nFormat/Info                              : Advanced Video Codec\nFormat profile                           : &lt;a class=&quot;__cf_email__&quot; href=&quot;/cdn-cgi/l/email-protection&quot; data-cfemail=&quot;3179585659717d051f00&quot;&gt;[email&amp;#160;protected]&lt;/a&gt;&lt;script cf-hash='f9e31' type=&quot;text/javascript&quot;&gt;\n/* &lt;![CDATA[ */!function(){try{var t=&quot;currentScript&quot;in document?document.currentScript:function(){for(var t=document.getElementsByTagName(&quot;script&quot;),e=t.length;e--;)if(t[e].getAttribute(&quot;cf-hash&quot;))return t[e]}();if(t&amp;&amp;t.previousSibling){var e,r,n,i,c=t.previousSibling,a=c.getAttribute(&quot;data-cfemail&quot;);if(a){for(e=&quot;&quot;,r=parseInt(a.substr(0,2),16),n=2;a.length-n;n+=2)i=parseInt(a.substr(n,2),16)^r,e+=String.fromCharCode(i);e=document.createTextNode(e),c.parentNode.replaceChild(e,c)}}}catch(u){}}();/* ]]&gt; */&lt;/script&gt;\nFormat settings, CABAC                   : Yes\nFormat settings, ReFrames                : 2 frames\nCodec ID                                 : V_MPEG4/ISO/AVC\nDuration                                 : 49mn 8s\nBit rate                                 : 5 370 Kbps\nWidth                                    : 1 920 pixels\nHeight                                   : 1 080 pixels\nDisplay aspect ratio                     : 16:9\nFrame rate mode                          : Constant\nFrame rate                               : 23.976 fps\nColor space                              : YUV\nChroma subsampling                       : 4:2:0\nBit depth                                : 8 bits\nScan type                                : Progressive\nBits/(Pixel*Frame)                       : 0.108\nStream size                              : 1.84 GiB (84%)\nWriting library                          : x264 core\nDefault                                  : Yes\nForced                                   : No\nColor primaries                          : BT.709\nTransfer characteristics                 : BT.709\nMatrix coefficients                      : BT.709\n\nAudio #1\nID                                       : 2\nFormat                                   : DTS\nFormat/Info                              : Digital Theater Systems\nMode                                     : 16\nFormat settings, Endianness              : Big\nCodec ID                                 : A_DTS\nDuration                                 : 49mn 8s\nBit rate mode                            : Constant\nBit rate                                 : 768 Kbps\nChannel(s)                               : 2 channels\nChannel positions                        : Front: L R\nSampling rate                            : 48.0 KHz\nBit depth                                : 24 bits\nCompression mode                         : Lossy\nStream size                              : 270 MiB (12%)\nLanguage                                 : Latin Spanish\nDefault                                  : Yes\nForced                                   : No\n\nAudio #2\nID                                       : 3\nFormat                                   : AC-3\nFormat/Info                              : Audio Coding 3\nMode extension                           : CM (complete main)\nFormat settings, Endianness              : Big\nCodec ID                                 : A_AC3\nDuration                                 : 49mn 8s\nBit rate mode                            : Constant\nBit rate                                 : 128 Kbps\nChannel(s)                               : 2 channels\nChannel positions                        : Front: L R\nSampling rate                            : 48.0 KHz\nBit depth                                : 16 bits\nCompression mode                         : Lossy\nStream size                              : 45.0 MiB (2%)\nLanguage                                 : English\nDefault                                  : No\nForced                                   : No\n\nText\nID                                       : 4\nFormat                                   : PGS\nMuxing mode                              : zlib\nCodec ID                                 : S_HDMV/PGS\nCodec ID/Info                            : The same subtitle format used on BDs/HD-DVDs\nLanguage                                 : Spanish\nDefault                                  : No\nForced                                   : No\n\nMenu\n00:00:00.000                             : en:(01)00:00:00:000\n00:02:52.922                             : en:(02)00:02:52:922\n00:06:43.069                             : en:(03)00:06:43:069\n00:16:02.169                             : en:(04)00:16:02:169\n00:24:24.838                             : en:(05)00:24:24:838\n00:33:40.727                             : en:(06)00:33:40:727\n00:40:57.288                             : en:(07)00:40:57:288\n00:44:56.735                             : en:(08)00:44:56:735\n00:49:08.028                             : en:(09)00:49:08:028\n","torrent":{"xt":"urn:btih:ee14739c0449a0fc9968069aa8b030fc0b6ec5fa","amp;dn":"The+Pacific+%282010%29++1080p++-+%28Episode+5%29","amp;tr":["udp%3A%2F%2Ftracker.openbittorrent.com%3A80","udp%3A%2F%2Fopen.demonii.com%3A1337","udp%3A%2F%2Ftracker.coppersurfer.tk%3A6969","udp%3A%2F%2Fexodus.desync.com%3A6969"],"infoHash":"ee14739c0449a0fc9968069aa8b030fc0b6ec5fa","infoHashBuffer":{"type":"Buffer","data":[238,20,115,156,4,73,160,252,153,104,6,154,168,176,48,252,11,110,197,250]},"announce":[],"urlList":[]}}